/vscmnt/brussel_pixiu_data/_data_brussel/112/vsc11236/PredSimResults/SUBJ07opt3D/trackIG/worker_09.mot
version=1
nRows=11
nColumns=50
inDegrees=yes
endheader
                time	         pelvis_tilt	         pelvis_list	     pelvis_rotation	           pelvis_tx	           pelvis_ty	           pelvis_tz	       hip_flexion_r	     hip_adduction_r	      hip_rotation_r	        knee_angle_r	       ankle_angle_r	         mtp_angle_r	       hip_flexion_l	     hip_adduction_l	      hip_rotation_l	        knee_angle_l	       ankle_angle_l	         mtp_angle_l	    lumbar_extension	      lumbar_bending	     lumbar_rotation	 ercspn_r/activation	 intobl_r/activation	 extobl_r/activation	    abd_r/activation	    add_r/activation	hamstrings_r/activation	bifemsh_r/activation	glut_max_r/activation	iliopsoas_r/activation	rect_fem_r/activation	  vasti_r/activation	gastroc_r/activation	 soleus_r/activation	tib_ant_r/activation	 ercspn_l/activation	 intobl_l/activation	 extobl_l/activation	    abd_l/activation	    add_l/activation	hamstrings_l/activation	bifemsh_l/activation	glut_max_l/activation	iliopsoas_l/activation	rect_fem_l/activation	  vasti_l/activation	gastroc_l/activation	 soleus_l/activation	tib_ant_l/activation	
          0.50698341	         -5.75139525	          0.92729672	         -8.61753575	          0.70977677	          0.84603990	          0.01038331	        -12.92423508	         -0.96036848	          3.28032995	        -12.40592586	          4.87184567	         33.06662877	         31.71347308	         -1.86905403	         -4.55828065	         -6.73286342	          3.30305640	          0.29587727	        -13.20409479	          0.06249178	          2.32631259	          0.13948835	          0.00999999	          0.00999999	          0.01867452	          0.03272251	          0.01469293	          0.11464523	          0.01366547	          0.01000000	          0.03432431	          0.01843756	          0.20061513	          0.24598674	          0.01168993	          0.13119638	          0.10715348	          0.00999999	          0.02233514	          0.16109828	          0.07989432	          0.14217110	          0.09983205	          0.04574324	          0.00999999	          0.00999999	          0.00999999	          0.00999999	          0.47926946	
          0.51712308	         -5.70385094	          0.85676844	         -8.62697274	          0.72689529	          0.84427743	          0.00987224	        -13.86672919	         -1.07297588	          3.02408662	        -12.75256514	          3.58866587	         34.18572083	         31.59988896	         -1.69657783	         -4.35090902	         -8.59803365	          2.85103396	          0.27187475	        -13.00658342	         -0.17880942	          2.52638023	          0.13267035	          0.00999999	          0.00999999	          0.01597486	          0.07471688	          0.01461496	          0.09807166	          0.01168993	          0.14725042	          0.02936225	          0.01577215	          0.17161342	          0.22604610	          0.00999999	          0.11223011	          0.09879493	          0.00999999	          0.02639416	          0.15577167	          0.07615122	          0.12161828	          0.16408928	          0.03913042	          0.00999999	          0.00999999	          0.01366547	          0.01168993	          0.50526049	
          0.52726274	         -5.65471892	          0.78031045	         -8.58928545	          0.74398370	          0.84263694	          0.00931076	        -14.52212307	         -1.15074818	          2.73418989	        -13.63538596	          2.35695480	         35.09905867	         31.41671530	         -1.57671922	         -4.15433893	        -10.41378496	          2.41722273	          0.26182469	        -12.82822179	         -0.41853008	          2.70328404	          0.15394199	          0.00999999	          0.00999999	          0.01366547	          0.06890167	          0.01598597	          0.08389404	          0.00999999	          0.21190357	          0.02511753	          0.01349207	          0.14680430	          0.19806397	          0.00999999	          0.13784947	          0.08451274	          0.00999999	          0.12663477	          0.18583226	          0.06526693	          0.10403667	          0.17047914	          0.03347357	          0.00999999	          0.00999999	          0.01168994	          0.00999999	          0.61160325	
          0.53740241	         -5.60608039	          0.69325013	         -8.50929691	          0.76083713	          0.84131342	          0.00867854	        -14.79349071	         -1.19117644	          2.42846138	        -15.19027402	          1.17126242	         35.71118825	         31.22959242	         -1.46599693	         -3.99812557	        -12.17167383	          1.91924972	          0.23517809	        -12.69312488	         -0.65050897	          2.85690661	          0.19697621	          0.00999999	          0.00999999	          0.01168993	          0.07498231	          0.01744936	          0.07176598	          0.00999999	          0.24171454	          0.02148644	          0.01154160	          0.12558169	          0.16943105	          0.00999999	          0.16040866	          0.07229525	          0.00999999	          0.18325967	          0.20785201	          0.05583168	          0.08899671	          0.21759032	          0.02863450	          0.00999999	          0.00999999	          0.00999999	          0.00999999	          0.63280147	
          0.54754208	         -5.55798926	          0.60613822	         -8.39271042	          0.77731606	          0.84048667	          0.00799063	        -14.61541058	         -1.20653348	          2.11644160	        -17.49802988	          0.00455925	         35.89432805	         31.10561959	         -1.35206602	         -3.85505150	        -14.05111294	          1.74720413	          0.20492914	        -12.60983365	         -0.88689254	          2.98547389	          0.25667403	          0.00999999	          0.00999999	          0.00999999	          0.08877856	          0.01802079	          0.06139121	          0.00999999	          0.20677133	          0.01838027	          0.00999999	          0.10742710	          0.14493743	          0.00999999	          0.17771668	          0.06184396	          0.00999999	          0.22629048	          0.22520225	          0.04776043	          0.07613100	          0.25326702	          0.02449498	          0.00999999	          0.03083304	          0.00999999	          0.00999999	          0.62012266	
          0.55768175	         -5.51134700	          0.52182703	         -8.23904663	          0.79334944	          0.84032233	          0.00726281	        -13.95713681	         -1.20089496	          1.80081062	        -20.56015933	         -1.27449930	         35.58596422	         31.03321440	         -1.23180356	         -3.72270236	        -16.02432065	          1.96200558	          0.17818889	        -12.57642834	         -1.12781696	          3.08622335	          0.28759243	          0.00999999	          0.00999999	          0.00999999	          0.11434000	          0.01860340	          0.05832551	          0.00999999	          0.17687964	          0.01572315	          0.00999999	          0.09189702	          0.12398470	          0.00999999	          0.19185276	          0.05290355	          0.00999999	          0.24279694	          0.24107780	          0.04085600	          0.06512520	          0.26678297	          0.02095389	          0.00999999	          0.05330998	          0.00999999	          0.00999999	          0.54519896	
          0.56782142	         -5.46757614	          0.43723966	         -8.04803142	          0.80896578	          0.84085220	          0.00651310	        -12.83572759	         -1.17421241	          1.48924782	        -24.28015457	         -2.84855101	         34.77338667	         30.93524416	         -1.10180215	         -3.58817263	        -17.93771450	          2.50119079	          0.16867872	        -12.57881472	         -1.36640270	          3.15834355	          0.31454265	          0.00999999	          0.00999999	          0.00999999	          0.13481856	          0.01624782	          0.05400531	          0.00999999	          0.15130922	          0.01345015	          0.00999999	          0.07861202	          0.10606098	          0.00999999	          0.17206423	          0.04525561	          0.00999999	          0.24302960	          0.24989643	          0.03494969	          0.05571044	          0.26213599	          0.01792471	          0.00999999	          0.08994854	          0.00999999	          0.00999999	          0.46638284	
          0.57796109	         -5.42941053	          0.35014547	         -7.81999091	          0.82421251	          0.84203076	          0.00573929	        -11.29419682	         -1.12726590	          1.20575094	        -28.51267319	         -4.81852920	         33.33744625	         30.70959954	         -0.95378763	         -3.42416412	        -19.60683452	          3.37115117	          0.21255988	        -12.60360340	         -1.59209303	          3.20571826	          0.32064858	          0.00999999	          0.00999999	          0.00999999	          0.14302561	          0.01389897	          0.04619809	          0.00999999	          0.12943536	          0.01150574	          0.00999999	          0.06724755	          0.09072839	          0.03386674	          0.14718995	          0.03871328	          0.00999999	          0.25159047	          0.24519183	          0.03939157	          0.04765672	          0.23138697	          0.01533345	          0.00999999	          0.12358779	          0.00999999	          0.00999999	          0.39896069	
          0.58810075	         -5.39984010	          0.26359795	         -7.55750767	          0.83909792	          0.84374881	          0.00494410	         -9.40298964	         -1.05606330	          0.99194386	        -33.09892992	         -6.92701228	         30.83253697	         30.30023840	         -0.77801360	         -3.19482452	        -20.89808019	          4.37392609	          0.32331258	        -12.64518526	         -1.80186943	          3.23115950	          0.31062915	          0.03967311	          0.00999999	          0.00999999	          0.12234926	          0.01188968	          0.03951951	          0.00999999	          0.11072367	          0.09085462	          0.00999999	          0.05752598	          0.07761233	          0.20478149	          0.12591159	          0.03311673	          0.00999999	          0.27275519	          0.22508226	          0.06051842	          0.04076728	          0.19793675	          0.01311678	          0.00999999	          0.13496633	          0.00999999	          0.00999999	          0.34128535	
          0.59824042	         -5.38048070	          0.18831534	         -7.26891874	          0.85361509	          0.84581613	          0.00415680	         -7.29568642	         -0.94200361	          0.88196981	        -37.80553407	         -8.33078373	         27.25100986	         29.72145932	         -0.57292477	         -2.90780890	        -21.80594701	          5.32829523	          0.48732007	        -12.70167554	         -2.00425568	          3.23236876	          0.30525402	          0.04097414	          0.00999999	          0.01168993	          0.10466196	          0.01017086	          0.03380641	          0.01168993	          0.09471702	          0.07772032	          0.00999999	          0.04920980	          0.06639239	          0.20779401	          0.10770931	          0.02832925	          0.00999999	          0.26077634	          0.19254347	          0.06409823	          0.03487380	          0.16932223	          0.01122057	          0.00999999	          0.16136970	          0.00999999	          0.00999999	          0.29194779	
          0.60838009	         -5.37176258	          0.12092429	         -6.95599509	          0.86779876	          0.84813997	          0.00340585	         -5.09594062	         -0.75248489	          0.84531412	        -42.29541585	         -8.57901275	         23.95200659	         28.98724804	         -0.35433818	         -2.59828751	        -22.34339405	          6.14502102	          0.70207601	        -12.77043602	         -2.19519895	          3.20951979	          0.28737431	          0.03505076	          0.00999999	          0.00999999	          0.09107650	          0.01000000	          0.03023385	          0.00999999	          0.08102435	          0.06648476	          0.00999999	          0.04209583	          0.05679444	          0.24228490	          0.09213842	          0.02423386	          0.00999999	          0.23957578	          0.16470863	          0.06944670	          0.02983230	          0.14484434	          0.00999999	          0.00999999	          0.17634825	          0.00999999	          0.00999999	          0.24974266	
